<?xml version="1.0" encoding="utf-8"?>
<!-- Generator: Adobe Illustrator 25.3.1, SVG Export Plug-In . SVG Version: 6.00 Build 0)  -->
<svg version="1.1" id="Layer_1" xmlns="http://www.w3.org/2000/svg" xmlns:xlink="http://www.w3.org/1999/xlink" x="0px" y="0px"
	 viewBox="0 0 512 512" style="enable-background:new 0 0 512 512;" xml:space="preserve">
<style type="text/css">
	.st0{fill:none;stroke:#D4BBDA;stroke-width:32;stroke-miterlimit:10;}
	.st1{fill:#FFFFFF;stroke:#EE2527;stroke-width:64;stroke-miterlimit:10;}
	.st2{fill:#FFFFFF;stroke:#5064AE;stroke-width:64;stroke-miterlimit:10;}
</style>
<path class="st0" d="M96,405L96,405c-35.35,0-64-28.65-64-64v-21c0-35.35,28.65-64,64-64h160h160c35.35,0,64-28.65,64-64v-21
	c0-35.35-28.65-64-64-64h0"/>
<path class="st1" d="M365.93,182H82.07C54.42,182,32,159.58,32,131.93V82.07C32,54.42,54.42,32,82.07,32h283.86
	C393.58,32,416,54.42,416,82.07v49.86C416,159.58,393.58,182,365.93,182z"/>
<path class="st2" d="M430,480H146c-27.62,0-50-22.39-50-50v-50c0-27.62,22.39-50,50-50h284c27.62,0,50,22.39,50,50v50
	C480,457.61,457.61,480,430,480z"/>
</svg>
